# xmcd
#
# Track frame offsets: 
#        150
#        12220
#        20377
#        32600
#
# Disc length: 592 seconds
#
# Revision: 8
# Processed by: cddbd v1.5.2PL0 Copyright (c) Steve Scherf et al.
# Submitted via: ExactAudioCopy v0.99pb4
#
DISCID=20024e04
DTITLE=Manu Chao - Bongo Bong
DYEAR=2000
DGENRE=Reggae
TTITLE0=Bongo Bong
TTITLE1=Je Ne T'Aime Plus
TTITLE2=Mr Bobby
TTITLE3=Bienvenido A Tijuana
EXTD=
EXTT0=
EXTT1=
EXTT2=
EXTT3=
PLAYORDER=
